<svg xmlns="http://www.w3.org/2000/svg" viewBox="0 0 557.16 206.65"><defs><style>.cls-1{fill:#f26522;}.cls-2{fill:#123985;}</style></defs><title>logo</title><g id="Layer_2" data-name="Layer 2"><g id="Layer_1-2" data-name="Layer 1"><path class="cls-1" d="M129.48,106.66l-3.47-.15a55.22,55.22,0,0,0-7,.3,59.86,59.86,0,0,0,.32-15.14l-.46-3.44a.52.52,0,0,0-.62-.44l-3.41.77a50.58,50.58,0,0,0-6.3,2,58.92,58.92,0,0,0-4.07-16l-1.4-3.19a.51.51,0,0,0-.73-.23l-3,1.69a54.4,54.4,0,0,0-7.78,5.54C89.66,66.4,81.63,57.51,81.25,57.08l-2.34-2.57a.54.54,0,0,0-.78,0l-2.34,2.57c-.38.43-8.41,9.32-10.24,21.26a54.79,54.79,0,0,0-7.79-5.54l-3-1.69a.5.5,0,0,0-.72.23l-1.41,3.19a58.92,58.92,0,0,0-4.07,16,49.45,49.45,0,0,0-6.3-2l-3.39-.77a.53.53,0,0,0-.64.44l-.46,3.44a59.86,59.86,0,0,0,.32,15.14,55.18,55.18,0,0,0-7-.3l-3.47.15a.5.5,0,0,0-.49.58l.43,3.46c.12.87,3,21.75,18,34.49a49.51,49.51,0,0,0,18.58,9.52l.83-1.87,9.71-5.43L81,143.7c2.21-6.16,6.11-13.89,12.78-19.52,9-7.64,21.11-9.61,27.5-10.1-1.24,5-4,13.3-9.65,20.36h9.11a64.8,64.8,0,0,0,8.8-23.74l.43-3.46A.49.49,0,0,0,129.48,106.66Zm-51-40.94c2.33,3.5,5.34,9.2,5.84,15.6a46.49,46.49,0,0,0-3.11-3.93l-2.34-2.56a.53.53,0,0,0-.78,0l-2.34,2.56a46.49,46.49,0,0,0-3.11,3.93C73.18,74.92,76.19,69.22,78.52,65.72Zm-20.65,16a53.07,53.07,0,0,1,9.31,8.69A56.63,56.63,0,0,0,63.77,99a56.68,56.68,0,0,0-8.08-5.19A53.25,53.25,0,0,1,57.87,81.74Zm-13,15.36c5.68,2.05,15.75,6.7,21.89,15.52.12.17.2.35.32.51-.5,1.13-1,2.3-1.39,3.51a53.33,53.33,0,0,0-19.87-8.58A55.39,55.39,0,0,1,44.83,97.1Zm5.49,42.42c-9-7.65-13-19.22-14.56-25.44,6.39.49,18.46,2.46,27.5,10.1.14.1.24.22.36.32a36.55,36.55,0,0,0-.48,5.78,42.69,42.69,0,0,0,4.1,17.59A42.71,42.71,0,0,1,50.32,139.52Zm23,3.72a34.09,34.09,0,0,1-2.76-13c0-9.43,4.79-17.85,8-22.4A46.81,46.81,0,0,1,85.31,122,57.19,57.19,0,0,0,73.32,143.24Zm12.44-37.88a48.51,48.51,0,0,0-4.51-6l-2.34-2.57a.54.54,0,0,0-.78,0l-2.34,2.57a49.84,49.84,0,0,0-4.52,6c-.74-.3-.56-.22-1.3-.54a51.4,51.4,0,0,1,8.55-18.93,51.27,51.27,0,0,1,8.56,18.92ZM99.18,81.74a53.59,53.59,0,0,1,2.18,12.05A54.53,54.53,0,0,0,93.27,99a55.6,55.6,0,0,0-3.41-8.55A52.36,52.36,0,0,1,99.18,81.74Zm12.08,26.32a53.33,53.33,0,0,0-19.87,8.58c-.43-1.21-.9-2.38-1.39-3.5.12-.17.21-.35.32-.52,6.14-8.83,16.23-13.47,21.91-15.52A56.58,56.58,0,0,1,111.26,108.06Z"/><path class="cls-1" d="M157.13,27.74l-31,31.5A62.33,62.33,0,0,1,135,72.93l21.46-9.08a.58.58,0,0,1,.8.53V71.7a.58.58,0,0,1-.35.53L130.83,83.29l-1.5-3.73A54.63,54.63,0,0,0,28,79.56l-1.29,3.18a.58.58,0,0,1-.76.32L.35,72.23A.58.58,0,0,1,0,71.7V64.38a.58.58,0,0,1,.81-.53l21.45,9.08a62.73,62.73,0,0,1,8.91-13.69l-31-31.5A.58.58,0,0,1,0,27.33v-9.6a.58.58,0,0,1,1-.41L36.66,53.56a62.11,62.11,0,0,1,14.55-9.84L33.87.8A.58.58,0,0,1,34.4,0h7.27a.57.57,0,0,1,.53.36L58.51,40.73A62.47,62.47,0,0,1,74.7,37.56V.58A.58.58,0,0,1,75.28,0H82a.58.58,0,0,1,.58.58v37a62.32,62.32,0,0,1,16.18,3.17L115.09.36a.58.58,0,0,1,.54-.36h7.26a.59.59,0,0,1,.54.8L106.09,43.72a62.11,62.11,0,0,1,14.55,9.84L156.3,17.32a.58.58,0,0,1,1,.41v9.6A.62.62,0,0,1,157.13,27.74Z"/><path class="cls-1" d="M157.28,156.33a.54.54,0,0,0-.23-.34,7.66,7.66,0,0,0-10,1.49,120.86,120.86,0,0,1-21.55,19.76,144.32,144.32,0,0,1-42.44,21,18.17,18.17,0,0,1-5.3.8,17.65,17.65,0,0,1-5-.73c-12.1-3.63-42.56-14.93-63.89-41.41a5.5,5.5,0,0,1,4.29-8.94,5.58,5.58,0,0,1,2.23.47l52.3,25.12a14.63,14.63,0,0,0,2.39,1l.75.32a.78.78,0,0,0,.21,0,.48.48,0,0,0,.2,0h0a14.51,14.51,0,0,0,3.13.35A14.18,14.18,0,0,0,81,173.52l15.93-8.47a.54.54,0,0,0,.22-.73,7.07,7.07,0,0,0-6.26-3.76,7.2,7.2,0,0,0-3.33.83l-10.14,5.4a6.56,6.56,0,0,1-4.73.56l-1.77-.74a6.68,6.68,0,0,1-3.13-4.55,5.23,5.23,0,0,1-.09-1,6.67,6.67,0,0,1,3.38-5.88L97.9,139.9a6.64,6.64,0,0,1,3.28-.86h25.29a7.1,7.1,0,0,0,7.09-7.09.54.54,0,0,0-.54-.54H101.18a14.4,14.4,0,0,0-7,1.84L67.55,148.43a14.5,14.5,0,0,0-6.9,8.53,14.25,14.25,0,0,0-.54,5.18L18.38,141.41a13.2,13.2,0,0,0-5.28-1.11A13.14,13.14,0,0,0,2.91,161.67c22.66,28.13,54.84,40.09,67.63,43.92a25,25,0,0,0,7.2,1.06,25.86,25.86,0,0,0,7.54-1.14c49.71-15.27,71-47.42,71.93-48.78a.56.56,0,0,0,.07-.4"/><path class="cls-2" d="M330.7,96.61v39.74A18.65,18.65,0,0,1,312.05,155V96.61H304.3V82.41h7.75V73.09c0-10.62,6.6-21.38,21.8-21.38h11.86V67.49h-8.56c-4.45,0-6.45,2.44-6.45,6.75v8.17h15v14.2Z"/><path class="cls-2" d="M188.4,66.86V51.65h3.87a15.21,15.21,0,0,1,15.21,15.21Zm0,12.76H207V155H188.4Z"/><path class="cls-2" d="M271,155V109.38c0-9.9-6.31-13.2-12.19-13.2s-12,3.45-12,13.2V155H228.13V51.71a18.65,18.65,0,0,1,18.65,18.65V87.15a24.67,24.67,0,0,1,17.93-7.75c16.35,0,25,11.48,25,27.25V155Z"/><path class="cls-2" d="M376.31,92.42V72h2.36V92.42Z"/><path class="cls-2" d="M399.12,92.42,387.41,76V92.42h-2.36V72h2.23L399,88.31V72h2.35V92.42Z"/><path class="cls-2" d="M420.88,90.52a8.07,8.07,0,0,1-5.58,1.9h-7.56V72h7.56a8.07,8.07,0,0,1,5.58,1.9c2.29,2.12,2.17,5.25,2.17,8.09S423.17,88.4,420.88,90.52Zm-1.65-15.09a6,6,0,0,0-4.33-1.5h-4.81V90.47h4.81a6,6,0,0,0,4.33-1.5c1.52-1.46,1.46-4.5,1.46-7S420.75,76.89,419.23,75.43Z"/><path class="cls-2" d="M441.11,90.47a8.56,8.56,0,0,1-11.28,0c-2.07-1.93-2.07-3.94-2.07-8.27s0-6.34,2.07-8.27a8.56,8.56,0,0,1,11.28,0c2.08,1.93,2.08,3.94,2.08,8.27S443.19,88.54,441.11,90.47Zm-1.82-15.25a5.71,5.71,0,0,0-7.63,0c-1.39,1.33-1.55,2.7-1.55,7s.16,5.65,1.55,7a5.69,5.69,0,0,0,7.63,0c1.39-1.32,1.55-2.69,1.55-7S440.68,76.55,439.29,75.22Z"/><path class="cls-2" d="M462.81,92.42,451.09,76V92.42h-2.35V72H451l11.72,16.33V72H465V92.42Z"/><path class="cls-2" d="M471.43,92.42V72h13.69v2H473.78v7.21h9.67v2h-9.67v7.38h11.34v2Z"/><path class="cls-2" d="M495.69,92.59c-3.31,0-5.48-.77-7.56-2.7l1.61-1.49a7.93,7.93,0,0,0,6,2.24c3.23,0,5.21-1.41,5.21-3.79a3.19,3.19,0,0,0-1-2.56,5,5,0,0,0-2.89-1L494.45,83a8.45,8.45,0,0,1-4.06-1.55,4.69,4.69,0,0,1-1.67-3.82c0-3.47,2.7-5.77,7.07-5.77a9.28,9.28,0,0,1,6.57,2.24l-1.52,1.4a7.33,7.33,0,0,0-5.15-1.75c-2.94,0-4.65,1.52-4.65,3.79a2.84,2.84,0,0,0,1,2.36A6.74,6.74,0,0,0,495,81l2.42.34a7.44,7.44,0,0,1,4,1.44,5,5,0,0,1,1.86,4C503.32,90.38,500.28,92.59,495.69,92.59Z"/><path class="cls-2" d="M508.25,92.42V72h2.35V92.42Z"/><path class="cls-2" d="M529.85,92.42l-1.77-4.62h-9.64l-1.76,4.62h-2.51L522.28,72h2l8.09,20.44Zm-6.54-17.31L519.15,85.9h8.25Z"/><path class="cls-2" d="M389.14,123.62v-9.33H378.67v9.33h-2.36V103.18h2.36v9.16h10.47v-9.16h2.36v20.44Z"/><path class="cls-2" d="M397.88,123.62V103.18h13.7v2H400.24v7.2h9.67v2h-9.67v7.38h11.34v2Z"/><path class="cls-2" d="M429.15,123.62l-5-9.07h-5.3v9.07h-2.35V103.18h8.46c3.84,0,6.54,2.16,6.54,5.69,0,3-2,4.94-4.81,5.48l5.24,9.27Zm-4.43-18.48h-5.89v7.49h5.89c2.57,0,4.4-1.24,4.4-3.73S427.29,105.14,424.72,105.14Z"/><path class="cls-2" d="M436.81,123.62V103.18h2.35v20.44Z"/><path class="cls-2" d="M452,105.14v18.48h-2.35V105.14h-6.39v-2h15.13v2Z"/><path class="cls-2" d="M473.56,123.62,471.8,119h-9.64l-1.77,4.62h-2.51L466,103.18h2l8.09,20.44ZM467,106.31l-4.15,10.8h8.25Z"/><path class="cls-2" d="M492.13,121.44a8.56,8.56,0,0,1-11.53.23c-2.08-1.92-2.08-3.93-2.08-8.27s0-6.34,2.08-8.26a8.14,8.14,0,0,1,5.64-2.13c4.21,0,7.07,2.53,7.72,6.12H491.6a5.21,5.21,0,0,0-5.36-4.17,5.55,5.55,0,0,0-3.81,1.47c-1.4,1.32-1.55,2.7-1.55,7s.15,5.69,1.55,7a5.83,5.83,0,0,0,8-.32,5.07,5.07,0,0,0,1.24-3.7v-1.55h-5.42v-1.93H494v3.25A6.76,6.76,0,0,1,492.13,121.44Z"/><path class="cls-2" d="M499.51,123.62V103.18H513.2v2H501.86v7.2h9.67v2h-9.67v7.38H513.2v2Z"/><path class="cls-2" d="M378.67,136.34v7.52h9.66v1.95h-9.66v9h-2.36V134.39H390v2Z"/><path class="cls-2" d="M406.22,152.87a8.53,8.53,0,0,1-11.28,0c-2.08-1.92-2.08-3.93-2.08-8.26s0-6.35,2.08-8.27a8.56,8.56,0,0,1,11.28,0c2.07,1.92,2.07,3.93,2.07,8.27S408.29,151,406.22,152.87Zm-1.83-15.24a5.7,5.7,0,0,0-7.62,0c-1.4,1.32-1.55,2.7-1.55,7s.15,5.65,1.55,7a5.67,5.67,0,0,0,7.62,0c1.39-1.32,1.55-2.7,1.55-7S405.78,139,404.39,137.63Z"/><path class="cls-2" d="M421.22,155c-4.46,0-7.69-2.84-7.69-6.92V134.39h2.36v13.52c0,3.1,2.11,5.14,5.33,5.14s5.36-2,5.36-5.14V134.39h2.35v13.69C428.93,152.16,425.68,155,421.22,155Z"/><path class="cls-2" d="M449.08,154.83l-11.71-16.39v16.39H435V134.39h2.23L449,150.72V134.39h2.35v20.44Z"/><path class="cls-2" d="M470.84,152.93a8.07,8.07,0,0,1-5.58,1.9H457.7V134.39h7.56a8.12,8.12,0,0,1,5.58,1.89c2.29,2.13,2.17,5.26,2.17,8.1S473.13,150.81,470.84,152.93Zm-1.65-15.1a6,6,0,0,0-4.33-1.49h-4.81v16.53h4.81a6,6,0,0,0,4.33-1.49c1.52-1.46,1.46-4.51,1.46-7S470.71,139.3,469.19,137.83Z"/><path class="cls-2" d="M491.14,154.83l-1.77-4.63h-9.64L478,154.83h-2.51l8.11-20.44h2l8.09,20.44Zm-6.54-17.31-4.16,10.79h8.25Z"/><path class="cls-2" d="M501.83,136.34v18.49h-2.36V136.34h-6.38v-2h15.12v2Z"/><path class="cls-2" d="M512.34,154.83V134.39h2.35v20.44Z"/><path class="cls-2" d="M533.6,152.87a8.53,8.53,0,0,1-11.28,0c-2.08-1.92-2.08-3.93-2.08-8.26s0-6.35,2.08-8.27a8.56,8.56,0,0,1,11.28,0c2.07,1.92,2.07,3.93,2.07,8.27S535.67,151,533.6,152.87Zm-1.83-15.24a5.71,5.71,0,0,0-7.63,0c-1.39,1.32-1.55,2.7-1.55,7s.16,5.65,1.55,7a5.69,5.69,0,0,0,7.63,0c1.39-1.32,1.55-2.7,1.55-7S533.16,139,531.77,137.63Z"/><path class="cls-2" d="M554.93,154.83l-11.71-16.39v16.39h-2.36V134.39h2.23l11.72,16.33V134.39h2.35v20.44Z"/></g></g></svg>